# xmcd
#
# Track frame offsets:
#	150
#	18810
#	31952
#	49682
#	70697
#	87662
#	113255
#	131425
#	147760
#	164680
#	178920
#	195595
#	207585
#	222352
#	235930
#	248577
#	264607
#	282215
#	298955
#	317285
#
# Disc length: 4439
#
# Revision: 1
# Processed by: cddbd v1.5.1PL0 Copyright (c) Steve Scherf et al.
# Submitted via: CDex 1.50beta10
# Normalized: r0:TRMNUM
#
DISCID=26115514
DTITLE=Various Artistis - A Golden Hour of Trad Jazz Volume II
DYEAR=1990
DGENRE=Jazz
TTITLE0=South Rampart Street Parade
TTITLE1=Grandpa's Spells
TTITLE2=Rider
TTITLE3=Downhearted Blues
TTITLE4=Oh! Mr. Jelly
TTITLE5=Mood Indigo
TTITLE6=Chelsea Cake Walk
TTITLE7=Lonesome
TTITLE8=You've got the right key, but the wrong keyhole
TTITLE9=Shreveport Stomp
TTITLE10=Milenburg Joys
TTITLE11=Someday Sweethart
TTITLE12=Black Bottom Stomp
TTITLE13='Taint What You Do
TTITLE14=Burgandy Street
TTITLE15=Ragsy
TTITLE16=As Time Goes By
TTITLE17=Wolverine Blues
TTITLE18=I've Got What It Takes
TTITLE19=Doctor Jazz
EXTD=YEAR: 1990
EXTT0=
EXTT1=
EXTT2=
EXTT3=
EXTT4=
EXTT5=
EXTT6=
EXTT7=
EXTT8=
EXTT9=
EXTT10=
EXTT11=
EXTT12=
EXTT13=
EXTT14=
EXTT15=
EXTT16=
EXTT17=
EXTT18=
EXTT19=
PLAYORDER=
